<mxfile host="app.diagrams.net" agent="Mozilla/5.0 (Windows NT 10.0; Win64; x64; rv:132.0) Gecko/20100101 Firefox/132.0" version="25.0.1">
  <diagram name="第 1 页" id="5IompFRhn0-gLP5wTmyp">
    <mxGraphModel dx="1200" dy="778" grid="1" gridSize="10" guides="1" tooltips="1" connect="1" arrows="1" fold="1" page="1" pageScale="1" pageWidth="850" pageHeight="1100" math="0" shadow="0">
      <root>
        <mxCell id="0" />
        <mxCell id="1" parent="0" />
        <mxCell id="aH2Rv0B-jiOkKJzNCPrf-12" value="" style="endArrow=none;html=1;rounded=0;strokeWidth=8;" edge="1" parent="1">
          <mxGeometry width="50" height="50" relative="1" as="geometry">
            <mxPoint x="47" y="170" as="sourcePoint" />
            <mxPoint x="407" y="170" as="targetPoint" />
          </mxGeometry>
        </mxCell>
        <mxCell id="aH2Rv0B-jiOkKJzNCPrf-13" value="" style="endArrow=none;html=1;rounded=0;dashed=1;strokeWidth=2;" edge="1" parent="1">
          <mxGeometry width="50" height="50" relative="1" as="geometry">
            <mxPoint x="57" y="220" as="sourcePoint" />
            <mxPoint x="57" y="150" as="targetPoint" />
          </mxGeometry>
        </mxCell>
        <mxCell id="aH2Rv0B-jiOkKJzNCPrf-14" value="" style="endArrow=none;html=1;rounded=0;dashed=1;strokeWidth=2;" edge="1" parent="1">
          <mxGeometry width="50" height="50" relative="1" as="geometry">
            <mxPoint x="377" y="220" as="sourcePoint" />
            <mxPoint x="377" y="150" as="targetPoint" />
          </mxGeometry>
        </mxCell>
        <mxCell id="aH2Rv0B-jiOkKJzNCPrf-15" value="" style="rounded=1;whiteSpace=wrap;html=1;" vertex="1" parent="1">
          <mxGeometry x="57" y="210" width="320" height="10" as="geometry" />
        </mxCell>
        <mxCell id="aH2Rv0B-jiOkKJzNCPrf-16" value="" style="endArrow=none;html=1;rounded=0;strokeWidth=4;" edge="1" parent="1">
          <mxGeometry width="50" height="50" relative="1" as="geometry">
            <mxPoint x="580" y="40" as="sourcePoint" />
            <mxPoint x="660" y="40" as="targetPoint" />
          </mxGeometry>
        </mxCell>
        <mxCell id="aH2Rv0B-jiOkKJzNCPrf-17" value="" style="rounded=1;whiteSpace=wrap;html=1;" vertex="1" parent="1">
          <mxGeometry x="580" y="60" width="80" height="10" as="geometry" />
        </mxCell>
        <mxCell id="aH2Rv0B-jiOkKJzNCPrf-19" value="&lt;font style=&quot;font-size: 13px;&quot;&gt;Banned Period&lt;/font&gt;" style="text;strokeColor=none;align=center;fillColor=none;html=1;verticalAlign=middle;whiteSpace=wrap;rounded=0;fontSize=15;" vertex="1" parent="1">
          <mxGeometry x="663" y="20" width="140" height="30" as="geometry" />
        </mxCell>
        <mxCell id="aH2Rv0B-jiOkKJzNCPrf-20" value="&lt;font style=&quot;font-size: 13px;&quot;&gt;Campaign Period&lt;/font&gt;" style="text;strokeColor=none;align=center;fillColor=none;html=1;verticalAlign=middle;whiteSpace=wrap;rounded=0;fontSize=15;" vertex="1" parent="1">
          <mxGeometry x="670" y="50" width="140" height="30" as="geometry" />
        </mxCell>
      </root>
    </mxGraphModel>
  </diagram>
</mxfile>
